<svg width="38" height="38" viewBox="0 0 38 38" fill="none" xmlns="http://www.w3.org/2000/svg">
<path d="M31.3645 38C30.3562 37.9946 29.391 37.5606 28.6811 36.7933C27.9711 36.026 27.5743 34.9882 27.5779 33.9076C27.5779 31.6517 29.2764 29.8173 31.3645 29.8173C33.4544 29.8173 35.153 31.6517 35.153 33.9076C35.156 34.9883 34.7588 36.0262 34.0486 36.7934C33.3383 37.5607 32.373 37.9946 31.3645 38ZM31.3645 31.7495C30.2625 31.7495 29.3676 32.7166 29.3676 33.9076C29.3676 35.0987 30.2625 36.0678 31.3645 36.0678C32.4684 36.0678 33.3632 35.1007 33.3632 33.9076C33.3632 32.7166 32.4665 31.7495 31.3645 31.7495ZM16.1629 38C15.1544 37.9946 14.1891 37.5607 13.4789 36.7934C12.7686 36.0262 12.3714 34.9883 12.3744 33.9076C12.3744 31.6517 14.0749 29.8173 16.1629 29.8173C18.251 29.8173 19.9495 31.6517 19.9495 33.9076C19.9495 36.1656 18.251 38 16.1629 38ZM16.1629 31.7495C15.061 31.7495 14.1642 32.7166 14.1642 33.9076C14.1642 35.0987 15.061 36.0678 16.1629 36.0678C17.2649 36.0678 18.1617 35.1007 18.1617 33.9076C18.1617 32.7166 17.2649 31.7495 16.1629 31.7495ZM16.0888 28.274C15.6575 28.274 14.624 28.1213 13.4593 26.8671C12.2167 25.5295 11.9203 24.1816 11.8557 23.7928L7.08304 3.55079C7.06924 3.49254 7.05909 3.43336 7.05264 3.37366C7.05264 3.36959 7.00514 2.86466 6.86834 2.262C6.85504 2.28236 6.70875 2.20907 6.58145 2.16835H0.89488C0.400891 2.16835 0 1.68174 0 1.08519C0 0.48457 0.400891 0 0.89488 0H6.68215C6.73345 0 6.78474 0.0040722 6.83794 0.0162882C6.98614 0.0488643 8.29901 0.364446 8.5973 1.69192C8.7341 2.29865 8.8006 2.82394 8.8234 3.03568L12.7335 19.6088L32.9794 19.5864L36.16 7.25836C36.1691 7.22094 36.1805 7.18421 36.1942 7.14842C36.1942 7.14434 36.2721 6.85319 36.1258 6.53761C36.0821 6.43988 35.8047 6.37677 35.6242 6.39102L12.6651 6.39509C12.1711 6.39509 11.7702 5.90849 11.7702 5.3099C11.7702 4.71132 12.1711 4.22267 12.6651 4.22267H35.5102C35.8237 4.20028 37.0872 4.18399 37.6837 5.47278C38.0311 6.23465 38.0949 7.10959 37.8623 7.92006L34.6134 20.5229C34.6004 20.5748 34.5846 20.6258 34.5659 20.6756C34.3512 21.2233 33.8306 21.7588 33.1219 21.7568L13.2465 21.7873L13.5904 23.2471C13.6018 23.296 13.6094 23.3469 13.6151 23.3957C13.6189 23.41 13.7576 24.2834 14.6487 25.2424C15.4713 26.1321 16.0698 26.0996 16.0907 26.1016L31.9288 26.0955C32.4228 26.0955 32.8236 26.5841 32.8236 27.1827C32.8236 27.7813 32.4228 28.2679 31.9288 28.2679H16.2066C16.1675 28.2724 16.1282 28.2745 16.0888 28.274Z" fill="black"/>
</svg>
