<svg width="38" height="38" viewBox="0 0 38 38" fill="none" xmlns="http://www.w3.org/2000/svg">
<path d="M19.0002 3.45667C9.88443 3.45667 2.49463 10.8478 2.49463 19.9622C2.49463 29.078 9.88443 36.4665 19.0002 36.4665C28.116 36.4665 35.5058 29.078 35.5058 19.9622C35.5058 10.8478 28.1153 3.45667 19.0002 3.45667ZM23.3684 19.8932H20.5103C20.5103 24.4605 20.5103 30.0861 20.5103 30.0861H16.2742C16.2742 30.0861 16.2742 24.5181 16.2742 19.8932H14.2593V16.2945H16.2742V13.9626C16.2742 12.2936 17.0664 9.68823 20.5499 9.68823L23.6868 9.70029V13.1958C23.6868 13.1958 21.7792 13.1958 21.4092 13.1958C21.0372 13.1958 20.511 13.3815 20.511 14.1751V16.2951H23.7404L23.3684 19.8932Z" fill="white"/>
</svg>
