<svg width="38" height="38" viewBox="0 0 38 38" fill="none" xmlns="http://www.w3.org/2000/svg">
<path d="M18.8998 11.1923C14.2084 11.1923 10.3213 15.0124 10.3213 19.7707C10.3213 24.5291 14.1414 28.3492 18.8998 28.3492C23.6582 28.3492 27.4783 24.4621 27.4783 19.7707C27.4783 15.0794 23.5911 11.1923 18.8998 11.1923ZM18.8998 25.2663C15.8839 25.2663 13.4042 22.7866 13.4042 19.7707C13.4042 16.7549 15.8839 14.2752 18.8998 14.2752C21.9156 14.2752 24.3954 16.7549 24.3954 19.7707C24.3954 22.7866 21.9156 25.2663 18.8998 25.2663Z" fill="white"/>
<path d="M27.8132 12.9347C28.8866 12.9347 29.7568 12.0646 29.7568 10.9912C29.7568 9.91777 28.8866 9.04761 27.8132 9.04761C26.7398 9.04761 25.8696 9.91777 25.8696 10.9912C25.8696 12.0646 26.7398 12.9347 27.8132 12.9347Z" fill="white"/>
<path d="M32.8397 5.96471C31.0972 4.15519 28.6174 3.21692 25.8026 3.21692H11.9966C6.16593 3.21692 2.27881 7.10404 2.27881 12.9347V26.6737C2.27881 29.5555 3.21708 32.0353 5.09362 33.8448C6.90315 35.5873 9.31585 36.4585 12.0636 36.4585H25.7356C28.6174 36.4585 31.0301 35.5203 32.7726 33.8448C34.5822 32.1023 35.5204 29.6226 35.5204 26.7407V12.9347C35.5204 10.1199 34.5822 7.70722 32.8397 5.96471ZM32.5716 26.7407C32.5716 28.8183 31.8344 30.4938 30.628 31.6331C29.4217 32.7725 27.7462 33.3756 25.7356 33.3756H12.0636C10.0531 33.3756 8.37757 32.7725 7.17122 31.6331C5.96488 30.4268 5.3617 28.7513 5.3617 26.6737V12.9347C5.3617 10.9241 5.96488 9.24866 7.17122 8.04232C8.31055 6.90299 10.0531 6.29981 12.0636 6.29981H25.8696C27.8802 6.29981 29.5557 6.90299 30.7621 8.10933C31.9014 9.31568 32.5716 10.9912 32.5716 12.9347V26.7407Z" fill="white"/>
</svg>
