<svg width="198" height="45" viewBox="0 0 198 45" fill="none" xmlns="http://www.w3.org/2000/svg">
<g clip-path="url(#clip0_5_83)">
<path d="M165 26.6378C164.298 24.7993 164.932 15.2855 164.995 14.3676C164.999 14.3161 165.013 14.2707 165.037 14.2252C166.47 11.5301 167.665 13.0662 168.111 14.2344C168.127 14.2756 168.134 14.319 168.134 14.3631V17.2883C168.134 17.4948 168.299 17.6622 168.503 17.6622H172.466C172.527 17.6622 172.589 17.6782 172.642 17.7088C174.373 18.7095 173.427 19.9966 172.652 20.586C172.592 20.6316 172.519 20.6541 172.444 20.6541H168.503C168.299 20.6541 168.134 20.8208 168.134 21.0273V25.5159C168.134 28.1519 170.961 28.972 172.464 29.0638C172.527 29.0676 172.589 29.087 172.642 29.1217C174.395 30.2684 173.402 31.3827 172.622 31.8377C172.58 31.8621 172.533 31.8764 172.485 31.8809C168.252 32.2793 165.733 28.559 165 26.6378Z" fill="black" stroke="black" stroke-width="0.373982"/>
<path d="M175.14 26.8982C174.438 25.0596 175.072 15.5459 175.135 14.628C175.138 14.5765 175.153 14.5311 175.177 14.4856C176.61 11.7905 177.805 13.3266 178.251 14.4948C178.266 14.536 178.274 14.5794 178.274 14.6235V17.5487C178.274 17.7552 178.439 17.9227 178.642 17.9227H182.605C182.666 17.9227 182.728 17.9385 182.781 17.9692C184.512 18.9699 183.567 20.257 182.792 20.8464C182.732 20.892 182.658 20.9145 182.583 20.9145H178.642C178.439 20.9145 178.274 21.0812 178.274 21.2877V25.7763C178.274 28.4123 181.101 29.2323 182.603 29.3242C182.666 29.328 182.728 29.3474 182.781 29.3821C184.535 30.5288 183.542 31.6431 182.762 32.098C182.72 32.1224 182.673 32.1367 182.625 32.1413C178.392 32.5397 175.873 28.8193 175.14 26.8982Z" fill="black" stroke="black" stroke-width="0.373982"/>
<path d="M84.8392 17.8492H90.9746C91.0388 17.8492 91.104 17.867 91.159 17.9004C93.0449 19.0439 91.9889 20.1553 91.1497 20.6135C91.0996 20.641 91.0428 20.6541 90.9857 20.6541H84.9207C84.8451 20.6541 84.7699 20.6778 84.7098 20.724C83.4359 21.6992 84.1242 22.7344 84.7116 23.2019C84.771 23.2493 84.8451 23.272 84.9207 23.272H91.0421C91.0624 23.272 91.0819 23.2735 91.1018 23.2771C92.2194 23.4774 94.5058 24.5297 94.9442 27.1988C95.3793 29.8456 93.237 31.3843 92.0549 31.8503C92.0144 31.8663 91.9724 31.8736 91.9288 31.8736H85.0759C85.0187 31.8736 84.9605 31.8596 84.91 31.8324C83.319 30.976 84.1836 29.8449 84.8974 29.3202C84.9564 29.2769 85.0276 29.2557 85.1006 29.2557H90.9576C91.0325 29.2557 91.1073 29.2317 91.1682 29.187C92.8975 27.9128 91.9222 26.8832 91.1457 26.4865C91.0978 26.4622 91.045 26.4508 90.9916 26.4508H84.9889C83.8827 26.3262 81.5967 25.3289 81.3017 22.337C81.0093 19.3708 83.4713 18.12 84.771 17.8559C84.7938 17.8513 84.8163 17.8492 84.8392 17.8492Z" fill="black" stroke="black" stroke-width="0.373982"/>
<path d="M96.2349 30.8254V14.0297C96.2349 13.9596 96.2551 13.8887 96.2928 13.8299C97.7083 11.6134 98.7749 12.8818 99.1606 13.8595C99.1768 13.9012 99.1846 13.9454 99.1846 13.9902V18.2553C99.1846 18.5885 99.6119 18.7864 99.8999 18.626C101.188 17.9082 103.063 17.7976 103.978 17.8492C107.931 17.9977 109.789 21.7217 110.236 23.6051C110.243 23.6329 110.246 23.6604 110.246 23.689V30.817C110.246 30.896 110.221 30.9745 110.173 31.0367C109.066 32.4707 107.787 31.6962 107.197 31.0393C107.14 30.9754 107.112 30.8929 107.112 30.8066V23.6459C107.112 22.711 105.637 20.8411 103.056 20.6541C101.039 20.5079 99.561 22.4918 99.0356 23.5713C99.0117 23.6207 99.0002 23.6745 99.0002 23.7295V30.8375C99.0002 30.9037 98.9825 30.9704 98.9479 31.0267C97.9686 32.6294 96.8178 31.7542 96.2987 31.0312C96.2555 30.9715 96.2349 30.8992 96.2349 30.8254Z" fill="black" stroke="black" stroke-width="0.373982"/>
<path d="M51.7077 31.2297C53.0882 32.8156 54.2404 31.9334 54.7021 31.2116C54.7375 31.156 54.7541 31.0908 54.7541 31.0246V25.6932C54.7541 25.4905 54.9133 25.3247 55.1132 25.3194L61.6778 25.1442C61.7316 25.1427 61.7855 25.1289 61.8338 25.1044C63.9966 24.0069 65.0862 23.4087 65.8155 18.9713C66.4055 15.381 63.1117 13.2369 61.3909 12.6136C59.7081 12.004 53.2055 12.5868 52.9201 12.6127C52.9112 12.6135 52.9057 12.6144 52.8965 12.616C51.1716 12.9154 51.5466 14.3134 51.9673 15.01C51.9817 15.0333 51.9983 15.0542 52.0175 15.0735L58.3214 21.4675C58.3973 21.5447 58.5032 21.5854 58.6101 21.5722C60.2922 21.364 60.4526 20.1197 60.3054 19.4313C60.2933 19.3742 60.2649 19.3226 60.2262 19.2792L57.5202 16.2296C57.3067 15.9889 57.4752 15.6054 57.7941 15.6054H60.6019C60.6362 15.6054 60.6697 15.6099 60.7022 15.6201C61.576 15.8931 63.1951 16.9159 63.0502 18.9713C62.9071 21.0036 61.4791 22.1437 60.721 22.4942C60.6767 22.5147 60.6284 22.5241 60.5798 22.5241H51.9887C51.7852 22.5241 51.62 22.6915 51.62 22.8981V30.9903C51.62 31.0778 51.651 31.1641 51.7077 31.2297Z" fill="black" stroke="black" stroke-width="0.373982"/>
<path d="M111.446 31.2297C112.827 32.8156 113.979 31.9334 114.441 31.2116C114.476 31.156 114.493 31.0908 114.493 31.0246V25.6932C114.493 25.4905 114.652 25.3247 114.852 25.3194L121.416 25.1442C121.47 25.1427 121.524 25.1289 121.572 25.1044C123.735 24.0069 124.825 23.4087 125.554 18.9713C126.144 15.381 122.85 13.2369 121.13 12.6136C119.447 12.004 112.944 12.5868 112.659 12.6127C112.65 12.6135 112.644 12.6144 112.635 12.616C110.911 12.9154 111.285 14.3134 111.706 15.01C111.72 15.0333 111.737 15.0542 111.756 15.0735L118.06 21.4675C118.136 21.5447 118.242 21.5854 118.349 21.5722C120.031 21.364 120.191 20.1197 120.044 19.4313C120.032 19.3742 120.003 19.3226 119.965 19.2792L117.259 16.2296C117.045 15.9889 117.214 15.6054 117.533 15.6054H120.34C120.375 15.6054 120.408 15.6099 120.441 15.6201C121.315 15.8931 122.934 16.9159 122.789 18.9713C122.646 21.0036 121.218 22.1437 120.46 22.4942C120.415 22.5147 120.367 22.5241 120.318 22.5241H111.727C111.524 22.5241 111.359 22.6915 111.359 22.8981V30.9903C111.359 31.0778 111.39 31.1641 111.446 31.2297Z" fill="black" stroke="black" stroke-width="0.373982"/>
<path d="M36.503 0.833008H5.53094C2.57822 0.833008 0.18457 3.26085 0.18457 6.25575V38.4182C0.18457 41.4131 2.57822 43.841 5.53094 43.841H36.503C39.4557 43.841 41.8494 41.4131 41.8494 38.4182V6.25575C41.8494 3.26085 39.4557 0.833008 36.503 0.833008Z" fill="black" stroke="black" stroke-width="0.373982"/>
<path fill-rule="evenodd" clip-rule="evenodd" d="M10.0535 17.6608C10.8937 17.4602 11.7234 18.0312 11.8502 18.8972L14.1931 34.8981C14.3005 35.6314 14.9211 36.1743 15.6519 36.1743H16.6671C17.373 36.1743 17.98 35.6668 18.1148 34.9639L18.9097 30.8173C19.058 30.0439 19.7723 29.5249 20.5486 29.5522C25.2042 29.7158 32.7219 28.02 33.9218 19.9061C35.2492 10.9305 26.5481 8.06846 19.1732 7.93865C14.4019 7.85465 11.3821 9.14213 7.93595 12.5965C7.58154 12.9517 7.44191 13.4713 7.55393 13.9637L8.14745 16.5723C8.33114 17.3798 9.12705 17.8819 9.92233 17.6921L10.0535 17.6608ZM21.9587 24.8939C20.9976 25.279 20.1016 24.409 20.2798 23.3766L21.0312 19.0216C21.1341 18.4252 21.58 17.9431 22.1713 17.8599C24.4401 17.5404 27.4993 17.7428 26.7319 20.4671C26.1017 22.7042 23.8759 24.1258 21.9587 24.8939Z" fill="white" stroke="black" stroke-width="0.373982"/>
<path d="M79.2736 24.7679C79.4772 24.7679 79.6435 24.6004 79.6328 24.3941C79.5513 22.829 78.9621 21.3346 77.9562 20.1599C76.87 18.892 75.3745 18.0852 73.7544 17.8934C72.1342 17.7017 70.503 18.1384 69.172 19.1202C67.8409 20.102 66.9033 21.5603 66.5375 23.2168C66.1721 24.8733 66.4044 26.6122 67.1897 28.1016C67.9755 29.5911 69.2597 30.7269 70.7973 31.2925C72.3352 31.858 74.0187 31.8137 75.5268 31.1679C76.926 30.5689 78.0834 29.4912 78.8124 28.1179C78.9075 27.9388 78.8319 27.7186 78.6524 27.6277L76.804 26.6917C76.6193 26.598 76.3958 26.678 76.2904 26.8583C75.8652 27.5841 75.2281 28.1534 74.4674 28.479C73.5929 28.8534 72.6169 28.8792 71.7249 28.5512C70.8334 28.2233 70.089 27.5647 69.6332 26.701C69.1779 25.8373 69.0429 24.8291 69.2549 23.8685C69.4669 22.908 70.0108 22.0624 70.7825 21.4931C71.5542 20.9237 72.5003 20.6705 73.4398 20.7817C74.379 20.8929 75.2465 21.3607 75.8763 22.096C76.4261 22.7378 76.7609 23.5442 76.8372 24.3944C76.8556 24.6002 77.019 24.7679 77.2225 24.7679H79.2736Z" fill="black"/>
<path fill-rule="evenodd" clip-rule="evenodd" d="M139.743 19.2151V31.0166C139.743 31.0877 139.724 31.1576 139.683 31.2154C139.225 31.8635 138.109 32.639 136.768 31.2942C136.668 31.194 136.526 31.1504 136.39 31.1872C132.7 32.1874 125.732 32.1656 125.732 24.3938C125.732 16.6387 132.67 17.316 136.366 18.6909C136.513 18.7456 136.676 18.7024 136.786 18.589C137.578 17.7692 139.035 16.9543 139.725 19.1021C139.737 19.1381 139.743 19.1773 139.743 19.2151ZM132.738 29.0686C134.977 29.0686 136.793 27.2268 136.793 24.9548C136.793 22.6828 134.977 20.841 132.738 20.841C130.498 20.841 128.682 22.6828 128.682 24.9548C128.682 27.2268 130.498 29.0686 132.738 29.0686Z" fill="black"/>
<path d="M139.927 31.0167V19.2152H139.559V31.0167H139.927ZM139.833 31.3244C139.899 31.2305 139.927 31.1212 139.927 31.0167H139.559C139.559 31.0544 139.549 31.0848 139.533 31.1065L139.833 31.3244ZM136.638 31.4272C137.343 32.1336 138.017 32.3076 138.594 32.1852C139.157 32.0658 139.587 31.6724 139.833 31.3244L139.533 31.1065C139.321 31.4066 138.963 31.725 138.519 31.8192C138.088 31.9104 137.534 31.7998 136.898 31.1613L136.638 31.4272ZM136.437 31.3679C136.505 31.3496 136.582 31.37 136.638 31.4272L136.898 31.1613C136.755 31.0181 136.546 30.9514 136.342 31.0066L136.437 31.3679ZM125.547 24.3939C125.547 26.3654 125.989 27.8622 126.725 28.9786C127.46 30.0955 128.48 30.8175 129.611 31.2548C131.865 32.1262 134.573 31.8733 136.437 31.3679L136.342 31.0066C134.516 31.5015 131.895 31.7377 129.743 30.9054C128.67 30.4908 127.718 29.8127 127.031 28.7709C126.345 27.7286 125.916 26.3083 125.916 24.3939H125.547ZM136.429 18.5155C134.565 17.822 131.863 17.2951 129.612 17.9388C128.482 18.2621 127.461 18.8827 126.724 19.9291C125.987 20.9744 125.547 22.4273 125.547 24.3939H125.916C125.916 22.483 126.343 21.1124 127.024 20.1465C127.703 19.1818 128.647 18.6035 129.713 18.2987C131.855 17.6859 134.47 18.1851 136.302 18.8666L136.429 18.5155ZM136.654 18.4581C136.591 18.5232 136.503 18.5429 136.429 18.5155L136.302 18.8666C136.523 18.9485 136.761 18.8818 136.917 18.72L136.654 18.4581ZM139.901 19.0442C139.722 18.4878 139.486 18.1011 139.206 17.8584C138.92 17.6117 138.601 17.5243 138.281 17.5462C137.662 17.5887 137.058 18.0396 136.654 18.4581L136.917 18.72C137.305 18.3187 137.826 17.9523 138.306 17.9193C138.536 17.9036 138.76 17.9639 138.966 18.1429C139.178 18.3258 139.384 18.6427 139.55 19.1602L139.901 19.0442ZM139.927 19.2152C139.927 19.1581 139.918 19.0992 139.901 19.0442L139.55 19.1602C139.556 19.1771 139.559 19.1968 139.559 19.2152H139.927ZM136.609 24.9549C136.609 27.1236 134.875 28.8817 132.737 28.8817V29.2557C135.079 29.2557 136.978 27.3302 136.978 24.9549H136.609ZM132.737 21.0281C134.875 21.0281 136.609 22.7862 136.609 24.9549H136.978C136.978 22.5796 135.079 20.6541 132.737 20.6541V21.0281ZM128.866 24.9549C128.866 22.7862 130.599 21.0281 132.737 21.0281V20.6541C130.396 20.6541 128.497 22.5796 128.497 24.9549H128.866ZM132.737 28.8817C130.599 28.8817 128.866 27.1236 128.866 24.9549H128.497C128.497 27.3302 130.396 29.2557 132.737 29.2557V28.8817Z" fill="black"/>
<path d="M141.034 26.077V13.8602C141.034 13.7793 141.06 13.699 141.11 13.6357C142.357 12.0489 143.58 12.9219 144.104 13.6432C144.147 13.7026 144.168 13.7727 144.168 13.8465V24.955C144.168 28.1573 147.077 28.9046 148.649 28.8852C148.732 28.8842 148.815 28.9089 148.88 28.9608C150.3 30.0889 149.507 31.2875 148.856 31.8125C148.805 31.8538 148.741 31.8775 148.675 31.8835C142.857 32.4237 141.156 28.246 141.034 26.077Z" fill="black" stroke="black" stroke-width="0.373982"/>
<path fill-rule="evenodd" clip-rule="evenodd" d="M153.6 27.1982C153.417 26.9666 153.589 26.6379 153.882 26.6379H162.61C162.723 26.6379 162.829 26.5878 162.893 26.4946C163.605 25.4587 164.343 22.9883 162.235 20.2802C160.022 17.438 156.52 17.4754 155.045 17.8493C153.078 18.348 149.256 20.4672 149.698 24.955C150.203 30.0719 153.929 31.4549 154.859 31.8003C154.949 31.8336 155.012 31.8573 155.045 31.8737C155.411 32.0595 159.418 32.4299 161.639 30.05C161.667 30.0197 161.69 29.9848 161.706 29.9463C162.113 28.9496 162.255 27.2146 159.745 27.74C159.687 27.7523 159.631 27.7801 159.584 27.8184C158.391 28.8014 155.72 29.8775 153.6 27.1982ZM160.253 23.0195C160.343 23.2392 160.17 23.4591 159.935 23.4591H153.626C153.402 23.4591 153.23 23.2569 153.302 23.0412C153.605 22.1252 154.553 20.8412 156.704 20.8412C158.838 20.8412 159.876 22.105 160.253 23.0195Z" fill="black" stroke="black" stroke-width="0.373982"/>
<path fill-rule="evenodd" clip-rule="evenodd" d="M187.557 27.0034C187.374 26.7718 187.546 26.4431 187.839 26.4431H196.567C196.68 26.4431 196.786 26.393 196.85 26.2998C197.562 25.2639 198.299 22.7934 196.192 20.0854C193.979 17.2431 190.477 17.2805 189.002 17.6545C187.035 18.1531 183.213 20.2724 183.655 24.7602C184.16 29.8771 187.886 31.2601 188.816 31.6055C188.906 31.6388 188.969 31.6624 189.002 31.6789C189.368 31.8646 193.375 32.2351 195.596 29.8551C195.624 29.8249 195.647 29.7899 195.663 29.7515C196.07 28.7548 196.212 27.0197 193.702 27.5452C193.644 27.5575 193.588 27.5852 193.541 27.6236C192.348 28.6066 189.677 29.6827 187.557 27.0034ZM194.209 22.8247C194.3 23.0444 194.127 23.2642 193.892 23.2642H187.583C187.359 23.2642 187.187 23.0621 187.259 22.8464C187.562 21.9304 188.51 20.6464 190.661 20.6464C192.794 20.6464 193.833 21.9102 194.209 22.8247Z" fill="black" stroke="black" stroke-width="0.373982"/>
</g>
<defs>
<clipPath id="clip0_5_83">
<rect width="198" height="43.382" fill="white" transform="translate(0 0.646118)"/>
</clipPath>
</defs>
</svg>
