<svg width="38" height="38" viewBox="0 0 38 38" fill="none" xmlns="http://www.w3.org/2000/svg">
<path d="M11.9531 21.3504H13.1482V27.287H14.3031V21.3504H15.4969V20.3396H11.9531V21.3504Z" fill="white"/>
<path d="M19.0442 16.4172C19.201 16.4172 19.3257 16.3756 19.4175 16.2905C19.5094 16.2027 19.5563 16.0834 19.5563 15.9332V12.8567C19.5563 12.7333 19.5094 12.6328 19.4149 12.5584C19.3204 12.4813 19.1977 12.4431 19.0442 12.4431C18.9041 12.4431 18.7902 12.4813 18.701 12.5584C18.6132 12.6328 18.5703 12.734 18.5703 12.8567V15.9332C18.5703 16.0874 18.6112 16.2067 18.6936 16.2905C18.7747 16.3756 18.8927 16.4172 19.0442 16.4172Z" fill="white"/>
<path d="M21.591 22.0991C21.4315 22.0991 21.274 22.14 21.1185 22.2211C20.965 22.3022 20.8175 22.4228 20.6801 22.5783V20.3396H19.6445V27.287H20.6801V26.8942C20.8135 27.0524 20.9603 27.1677 21.1171 27.2428C21.2726 27.3172 21.4523 27.354 21.654 27.354C21.9563 27.354 22.1909 27.2582 22.3491 27.0645C22.51 26.8694 22.5911 26.5919 22.5911 26.2293V23.3847C22.5911 22.9644 22.5059 22.6447 22.333 22.4275C22.1628 22.209 21.9154 22.0991 21.591 22.0991ZM21.5347 26.0879C21.5347 26.2528 21.5045 26.3694 21.4456 26.4411C21.3866 26.5142 21.2948 26.5497 21.1694 26.5497C21.0829 26.5497 21.0018 26.5303 20.9221 26.4948C20.8437 26.4592 20.7612 26.3969 20.6801 26.3138V23.1206C20.7498 23.0489 20.8202 22.9959 20.8906 22.9637C20.961 22.9282 21.0347 22.9128 21.1077 22.9128C21.2452 22.9128 21.3524 22.957 21.4275 23.0448C21.4992 23.1353 21.5347 23.266 21.5347 23.4403V26.0879Z" fill="white"/>
<path d="M17.8482 26.0564C17.7523 26.1663 17.6464 26.2568 17.5311 26.3298C17.4158 26.4015 17.3193 26.4371 17.2456 26.4371C17.1484 26.4371 17.0794 26.4109 17.0351 26.356C16.9936 26.3023 16.9708 26.2145 16.9708 26.0939V22.1614H15.9473V26.4478C15.9473 26.7541 16.0076 26.9793 16.1269 27.1348C16.2489 27.287 16.4252 27.3627 16.6625 27.3627C16.8548 27.3627 17.0539 27.3104 17.2583 27.2005C17.4628 27.0893 17.6592 26.9324 17.8488 26.7253V27.287H18.8737V22.162H17.8488L17.8482 26.0564Z" fill="white"/>
<path d="M19.0002 3.45532C9.88443 3.45532 2.49463 10.8451 2.49463 19.9609C2.49463 29.078 9.88443 36.4665 19.0002 36.4665C28.116 36.4665 35.5058 29.078 35.5058 19.9609C35.5058 10.8451 28.1153 3.45532 19.0002 3.45532ZM21.6666 11.6072H22.8188V15.9365C22.8188 16.0713 22.8449 16.1671 22.8932 16.2261C22.9401 16.2864 23.0192 16.3179 23.1278 16.3179C23.2115 16.3179 23.3188 16.277 23.4495 16.1986C23.5775 16.1175 23.6968 16.017 23.8041 15.8923V11.6072H24.959V17.2536H23.8041V16.6303C23.5936 16.8595 23.3717 17.0358 23.1405 17.1551C22.9113 17.2744 22.6887 17.3361 22.4716 17.3361C22.2048 17.3361 22.0044 17.251 21.8683 17.082C21.7349 16.9158 21.6666 16.6645 21.6666 16.3253V11.6072ZM17.3835 12.8982C17.3835 12.4625 17.5377 12.114 17.848 11.8519C18.1597 11.5952 18.5772 11.4645 19.1007 11.4645C19.5786 11.4645 19.9687 11.6019 20.2751 11.874C20.5787 12.1461 20.7308 12.5 20.7308 12.9317V15.8474C20.7308 16.332 20.5814 16.71 20.2844 16.9835C19.9835 17.257 19.5726 17.3944 19.0485 17.3944C18.5444 17.3944 18.1402 17.253 17.8373 16.9715C17.535 16.6859 17.3828 16.3039 17.3828 15.8246L17.3835 12.8982ZM14.2412 9.60042L15.0844 12.6582H15.1669L15.9692 9.60042H17.289L15.7782 14.0792V17.2543H14.4792V14.2206L12.9328 9.60042H14.2412ZM29.3486 25.7092C29.3486 27.7515 27.6923 29.4091 25.65 29.4091H12.7968C10.7531 29.4091 9.09685 27.7515 9.09685 25.7092V22.7345C9.09685 20.6908 10.7531 19.0346 12.7968 19.0346H25.65C27.6923 19.0346 29.3486 20.6908 29.3486 22.7345V25.7092Z" fill="white"/>
<path d="M24.6842 22.0347C24.2244 22.0347 23.853 22.1734 23.5621 22.4549C23.2726 22.7338 23.1265 23.0977 23.1265 23.5388V25.8432C23.1265 26.3378 23.2599 26.7253 23.5233 27.0054C23.7867 27.287 24.148 27.4284 24.6071 27.4284C25.1179 27.4284 25.5013 27.2963 25.7566 27.0316C26.016 26.7648 26.1427 26.3693 26.1427 25.8432V25.5798H25.089V25.813C25.089 26.1153 25.0535 26.3104 24.9872 26.3982C24.9208 26.486 24.8015 26.5302 24.6312 26.5302C24.4677 26.5302 24.3524 26.4793 24.284 26.3761C24.217 26.2701 24.1848 26.0838 24.1848 25.813V24.8485H26.1434V23.5394C26.1434 23.0548 26.0187 22.6835 25.7667 22.4228C25.514 22.164 25.1527 22.0347 24.6842 22.0347ZM25.089 24.0509H24.1842V23.5327C24.1842 23.3182 24.217 23.1621 24.2887 23.0729C24.3604 22.9771 24.4771 22.9315 24.6406 22.9315C24.7948 22.9315 24.9114 22.9771 24.9811 23.0729C25.0515 23.1621 25.0884 23.3176 25.0884 23.5327L25.089 24.0509Z" fill="white"/>
</svg>
